<?xml version="1.0" encoding="UTF-8"?>
<svg version="1.1" viewBox="0 0 1600 1600" xmlns="http://www.w3.org/2000/svg">
<path transform="translate(798 -.25)" d="m0 0c0.712-0.00773 1.42-0.0155 2.16-0.0234 21.7 0.0789 35.2 15.8 49.4 30.1 2.22 2.24 4.44 4.49 6.66 6.74 1.68 1.7 3.36 3.39 5.06 5.08 2.21 2.22 4.31 4.49 6.39 6.83 2.6 2.91 5.21 5.8 7.87 8.65 5.49 5.88 10.8 11.8 15.8 18.1 2.5 3.01 5.12 5.89 7.78 8.75 4.23 4.55 8.21 9.23 12.1 14.1 3.31 4.06 6.73 8.02 10.1 12 1.42 1.65 2.83 3.3 4.25 4.95 0.451 0.52 0.901 1.04 1.37 1.58 1.87 2.19 3.58 4.32 5.04 6.8 2.32 3.83 5.18 7.18 8.03 10.6 1.14 1.4 2.29 2.79 3.43 4.19 0.539 0.656 1.08 1.31 1.63 1.99 5.25 6.4 5.25 6.4 6.81 9.07 1.57 2.55 3.26 4.78 5.12 7.12 2.45 3.1 4.52 6.16 6.39 9.66 2.23 3.73 4.95 7.14 7.57 10.6 1.61 2.36 1.61 2.36 1.61 4.36 0.99 0.33 1.98 0.66 3 1 1.01 1.64 2 3.29 2.92 4.99 1.82 3.37 3.87 6.58 5.9 9.82 0.437 0.7 0.874 1.4 1.32 2.12 2.98 4.74 6.1 9.35 9.35 13.9 3.61 5.12 6.64 10.3 9.39 16 2.49 5.08 5.31 9.8 8.4 14.5 4.76 7.32 8.91 14.8 12.7 22.7 3.95 8.02 7.96 16 12.2 23.9 4.62 8.61 8.91 17.2 12.6 26.2 2.98 7.4 2.98 7.4 6.75 14.4 1.66 2.89 2.55 5.74 3.55 8.9 2.07 6.09 4.73 12 7.32 17.9 1.48 3.46 2.7 6.97 3.87 10.6 0.434 1.32 0.869 2.65 1.3 3.97 0.226 0.688 0.451 1.38 0.684 2.09 0.958 2.9 1.94 5.8 2.92 8.7 1.03 3.04 2.05 6.08 3.07 9.12 0.519 1.54 1.04 3.08 1.56 4.62 3.98 11.7 7.77 23.5 10.2 35.7 0.553 2.02 1.12 4.04 1.69 6.06 5.35 19.7 9.02 39.8 11.9 60 0.398 2.75 0.827 5.5 1.27 8.24 3.88 24.5 4.36 48.9 4.41 73.6 0.0079 1.82 0.0079 1.82 0.016 3.68 0.122 36.6 0.122 36.6-3.27 52.4-0.218 3.37-0.39 6.74-0.518 10.1-0.204 4.08-0.919 7.15-2.48 10.9-0.171 1.87-0.266 3.75-0.312 5.62-1.29 21-6.98 41.8-11.9 62.2-0.669 2.77-1.32 5.54-1.97 8.32-1.49 6.3-3.21 12.3-5.76 18.2-1.3 3.34-2.26 6.75-3.23 10.2-5.75 20.1-13.2 39.4-21.5 58.5-1.77 4.11-3.49 8.25-5.21 12.4-7.14 17.1-15.4 33.8-24.2 50.2-1.91 3.55-3.75 7.12-5.52 10.7-2.06 4.17-4.39 8.12-6.82 12.1-2.66 4.45-5.11 9.03-7.56 13.6h-2l-0.375 2.25c-0.58 2.55-1.36 4.48-2.62 6.75h-2l-0.25 2.19c-0.908 3.41-2.51 5.11-4.75 7.81-1.04 1.98-2.06 3.97-3 6h-2l-0.375 1.75c-0.631 2.27-1.51 4.18-2.62 6.25h-2c-0.232 0.839-0.464 1.68-0.703 2.54-1.52 4.05-3.59 7.23-6.05 10.8-0.448 0.659-0.896 1.32-1.36 2-0.889 1.31-1.78 2.61-2.68 3.92-1.55 2.27-3.07 4.55-4.59 6.84-0.456 0.681-0.913 1.36-1.38 2.06-0.822 1.24-1.63 2.49-2.42 3.75-0.892 1.41-1.85 2.77-2.82 4.12h-2c-0.248 0.722-0.495 1.44-0.75 2.19-1.37 3.07-3.13 5.22-5.25 7.81l-1.12 2.25c-0.875 1.75-0.875 1.75-2.88 2.75-1.04 1.64-2.03 3.31-3 5-0.846 1.42-1.7 2.84-2.56 4.25-0.414 0.686-0.828 1.37-1.25 2.08-1.18 1.67-1.18 1.67-3.18 2.67-0.495 0.846-0.99 1.69-1.5 2.56l-1.5 2.44h-2l-0.812 2.44c-0.392 0.846-0.784 1.69-1.19 2.56-0.99 0.33-1.98 0.66-3 1-0.355 1.33-0.684 2.66-1 4-1.56 2.36-1.56 2.36-3.44 4.75-0.617 0.799-1.23 1.6-1.87 2.42-0.558 0.603-1.12 1.21-1.69 1.83h-2l-0.812 2.44c-0.392 0.846-0.784 1.69-1.19 2.56-0.99 0.33-1.98 0.66-3 1-0.347 1.33-0.679 2.66-1 4-1.45 1.68-1.45 1.68-3.25 3.31-2.48 2.36-4.57 4.67-6.5 7.5-2.25 3.19-2.25 3.19-5.25 5.19-0.433 0.897-0.433 0.897-0.875 1.81-1.54 2.99-3.64 4.95-6.12 7.19h-2l-0.812 2.44c-0.392 0.846-0.784 1.69-1.19 2.56-0.99 0.33-1.98 0.66-3 1-0.702 1.32-1.36 2.65-2 4-4.55 6.03-9.38 11.9-15 17h-2l-2 4h-2c-0.402 0.959-0.402 0.959-0.812 1.94-1.19 2.06-1.19 2.06-4.19 3.06-0.144 0.639-0.289 1.28-0.438 1.94-0.186 0.681-0.371 1.36-0.562 2.06-1.32 0.684-2.66 1.35-4 2-0.683 1.33-1.35 2.66-2 4-0.99 0.33-1.98 0.66-3 1-0.684 1.32-1.35 2.66-2 4l-3 2-1 2.06c-1 1.94-1 1.94-4 2.94-1.5 1.6-1.5 1.6-3 3.56-7.8 9.18-18.3 15.8-30.1 18-1.96 0.328-1.96 0.328-3.88 1.39-5.77 0.446-10.6 0.0783-16-2-2.28-0.52-4.56-0.987-6.85-1.44-2.25-0.589-4.11-1.46-6.15-2.56v-2c-0.7-0.218-1.4-0.436-2.12-0.66-3.58-1.67-6.13-4.07-8.94-6.78-4-3.83-4-3.83-8.31-7.29-0.538-0.422-1.08-0.843-1.63-1.28v-2l-1.94-0.812c-2.06-1.19-2.06-1.19-3.06-4.19-0.99-0.33-1.98-0.66-3-1v-2h-2v-2c-0.589-0.253-1.18-0.505-1.79-0.766-2.47-1.38-3.84-2.82-5.65-4.98-0.603-0.71-1.21-1.42-1.83-2.15-1.06-1.28-2.11-2.56-3.16-3.85-2.33-2.87-4.62-5.06-7.58-7.25v-2c-0.574-0.238-1.15-0.477-1.74-0.723-2.74-1.55-4.37-3.35-6.45-5.71-0.788-0.896-1.58-1.79-2.39-2.71-3.11-3.65-6.13-7.36-9.14-11.1-3.08-3.71-6.34-7.24-9.63-10.8-1.65-2-1.65-2-1.65-4-0.99-0.33-1.98-0.66-3-1-0.667-1.33-1.33-2.67-2-4-1.12-1.15-2.24-2.29-3.39-3.4-16.7-16.6-16.7-16.6-19.6-24.3-0.318-0.749-0.637-1.5-0.965-2.27-0.99-0.33-1.98-0.66-3-1-0.932-1.35-1.85-2.7-2.72-4.09-1.51-2.25-3.18-4.31-4.9-6.41-3.36-4.15-6.53-8.4-9.62-12.8-0.618-0.867-0.618-0.867-1.25-1.75-1.18-1.66-2.34-3.33-3.5-5-0.391-0.556-0.782-1.11-1.19-1.69-2.81-4.08-2.81-4.08-2.81-6.31h-2c-1.4-1.79-1.4-1.79-2.94-4.19-0.531-0.821-1.06-1.64-1.61-2.49-1.07-1.72-2.12-3.45-3.14-5.2-1.19-2.12-1.19-2.12-2.74-3.52-1.68-1.72-2.8-3.42-4.02-5.49-0.677-1.13-0.677-1.13-1.37-2.28-0.472-0.794-0.944-1.59-1.43-2.41-3.52-5.85-7.08-11.6-11.1-17.1-1.87-2.68-3.59-5.43-5.31-8.21-1.27-2.05-2.56-4.09-3.86-6.13-0.842-1.33-1.68-2.67-2.53-4-0.421-0.66-0.842-1.32-1.28-2-2.42-3.85-4.56-7.73-6.55-11.8-2.76-5.41-5.96-10.6-9.04-15.8-0.523-0.902-1.05-1.8-1.59-2.73-0.716-1.22-0.716-1.22-1.45-2.46-1.04-2.14-1.04-2.14-1.04-5.14h-2c-3.37-6.73-6.73-13.5-10.1-20.2-0.324-0.648-0.648-1.3-0.981-1.96-0.826-1.65-1.65-3.3-2.48-4.96-0.989-1.98-1.98-3.95-2.98-5.92-0.504-0.999-1.01-2-1.53-3.03-0.507-1-1.01-2-1.54-3.04-1.26-2.6-2.34-5.21-3.4-7.9-0.763-1.67-1.53-3.34-2.31-5-2.38-5.19-4.42-10.5-6.44-15.8-1.16-2.95-2.41-5.81-3.75-8.69-3.79-8.18-7-16.6-9.73-25.2-0.657-1.95-1.37-3.88-2.11-5.8-2.07-5.49-3.89-11.1-5.73-16.6-0.351-1.06-0.703-2.12-1.06-3.21-0.673-2.03-1.34-4.06-2.01-6.08-0.646-1.95-1.31-3.89-1.98-5.82-1.35-4.25-2.35-8.59-3.38-12.9-0.687-2.83-1.38-5.55-2.5-8.24-1.81-4.7-2.53-9.71-3.5-14.6-0.165-0.819-0.33-1.64-0.5-2.48-0.144-0.738-0.289-1.48-0.438-2.24-0.526-2.3-0.526-2.3-1.56-4.68-1.03-2.61-1.59-5.03-2.08-7.79-0.188-1.05-0.377-2.09-0.571-3.17-0.198-1.14-0.397-2.29-0.601-3.47-0.318-1.83-0.318-1.83-0.642-3.7-0.585-3.41-1.16-6.82-1.74-10.2-0.38-2.24-0.767-4.48-1.16-6.72-4.18-24.1-6.66-48-7.22-72.5-0.0172-0.746-0.0344-1.49-0.0521-2.26-0.479-22.2 0.326-44.2 1.52-66.4 0.0386-0.746 0.0772-1.49 0.117-2.26 0.408-7.21 1.58-14.3 2.79-21.4 0.266-1.58 0.531-3.15 0.797-4.73 0.414-2.45 0.828-4.9 1.24-7.35 0.405-2.39 0.807-4.78 1.21-7.17 0.123-0.719 0.246-1.44 0.373-2.18 0.74-4.42 1.31-8.83 1.75-13.3 0.402-3.26 1.23-6.37 2.06-9.54 0.362-1.4 0.722-2.79 1.08-4.19 0.184-0.71 0.368-1.42 0.557-2.15 0.899-3.54 1.72-7.1 2.55-10.7 0.503-2.14 1.01-4.29 1.51-6.43 0.462-1.96 0.922-3.92 1.38-5.89 1.96-8.14 4.24-16.2 6.67-24.2 0.44-1.45 0.44-1.45 0.888-2.93 1.67-5.44 3.52-10.8 5.55-16.1 0.763-2.22 1.51-4.45 2.25-6.69 0.309-0.931 0.309-0.931 0.625-1.88 1.3-3.91 2.58-7.83 3.86-11.8 0.608-1.85 1.22-3.7 1.82-5.55 0.281-0.867 0.561-1.73 0.851-2.63 1.87-5.67 4.08-11.1 6.59-16.5 0.383-0.882 0.766-1.76 1.16-2.67 0.447-1.03 0.447-1.03 0.902-2.08 0.451-1.04 0.451-1.04 0.91-2.11 1.03-2.14 1.03-2.14 2.51-4.51 1.68-2.91 2.68-5.74 3.7-8.94 0.344-1.07 0.688-2.14 1.04-3.24 0.254-0.808 0.508-1.62 0.77-2.45h2l0.312-2.62c0.736-3.61 1.97-6.12 3.69-9.38 0.675-1.52 1.34-3.04 2-4.56 1.45-3.31 3.11-6.35 5-9.44 0.698-1.65 1.37-3.32 2-5h2l0.188-2.44c1.08-4.75 3.38-8.39 5.81-12.6l1.5-3c2.04-4.07 4.27-8.03 6.5-12h2l0.375-2.25c0.58-2.55 1.36-4.48 2.62-6.75h2l0.75-3.12c0.886-3.09 2.13-5.38 4.04-7.99 2.29-3.58 3.96-7.52 5.74-11.4 1.46-2.51 1.46-2.51 4.46-3.51 0.386-1.32 0.709-2.66 1-4 2.58-4.87 5.57-9.49 8.81-13.9 2.3-2.9 2.3-2.9 3.19-6.06l2-1 1-2.5c1-2.5 1-2.5 3-3.5 1.12-1.88 1.12-1.88 2.12-4.06 0.53-1.1 0.53-1.1 1.07-2.22 0.266-0.566 0.531-1.13 0.805-1.71h2l0.75-3.88c0.977-3.96 0.977-3.96 3.19-5.31 0.681-0.268 1.36-0.536 2.06-0.812 1.59-2.32 2.83-4.63 4-7.19 1-1.81 1-1.81 4-3.81 1.4-2.32 2.72-4.62 4-7 1.77-3.12 3.42-5.53 6-8l1.56-2.19 1.44-1.81h2c0.0735-0.547 0.147-1.09 0.223-1.66 1.08-3.25 2.99-5.26 5.21-7.84 2.64-3.08 4.84-5.83 6.56-9.5 1.31-1.36 2.65-2.69 4-4 1.34-1.66 2.68-3.33 4-5 13.1-16.2 13.1-16.2 17.2-20.2 1.82-1.69 1.82-1.69 2.69-3.75 1.51-2.94 3.62-4.87 6.06-7.06h2l0.688-2.19c1.26-2.7 2.56-4.23 4.7-6.25 5.92-5.75 11.2-12.1 16.1-18.8 1.51-1.81 1.51-1.81 4.51-3.81l1-3c0.99-0.33 1.98-0.66 3-1l1-2c1-2 1-2 4-3 1.62-1.56 1.62-1.56 3.12-3.44 0.518-0.617 1.04-1.23 1.57-1.87 1.37-1.67 1.37-1.67 2.3-3.69l3-1c2.52-2.27 4.6-4.2 6.12-7.25 0.875-1.75 0.875-1.75 3.88-2.75 0.689-1.32 1.35-2.66 2-4 1.66-1.7 1.66-1.7 3.5-3.25l1.84-1.58c1.66-1.17 1.66-1.17 3.66-1.17l1-3c9.03-7.3 18.8-11.4 30.4-11.2zm-308 521 1 3zm0 113 1 2z" fill="#FAFEFE"/>
<path transform="translate(1521 311)" d="m0 0c4.43-0.0667 8.86-0.114 13.3-0.147 1.64-0.0136 3.29-0.0318 4.93-0.0551 29.4-0.388 29.4-0.388 39.3 9.28v2c0.584 0.25 1.17 0.5 1.77 0.758 2.53 1.41 4.02 2.94 5.92 5.12 0.602 0.678 1.2 1.36 1.82 2.05 1.5 2.08 2.07 3.57 2.49 6.07h2c0.806 1.62 1.59 3.24 2.38 4.88 0.441 0.905 0.882 1.81 1.34 2.74 3.14 8.23 3.58 16.4 3.52 25.1-6.87e-4 1.63-6.87e-4 1.63-0.00139 3.28-3e-3 2.27-0.0108 4.55-0.0233 6.82-0.0183 3.48-0.0205 6.96-0.0203 10.4-0.00491 2.22-0.0107 4.43-0.0176 6.65-0.00111 1.04-0.00223 2.07-0.00337 3.14-0.00638 0.968-0.0128 1.94-0.0193 2.93-0.00381 0.847-0.00762 1.69-0.0116 2.57-0.141 2.56-0.605 4.93-1.13 7.43-0.191 2.52-0.347 5.03-0.465 7.55-0.0773 1.5-0.155 3.01-0.232 4.51-0.0586 1.18-0.0586 1.18-0.118 2.38-0.695 13.8-1.56 27.6-2.88 41.4-0.295 3.1-0.579 6.21-0.86 9.31-0.266 2.94-0.535 5.87-0.804 8.81-0.132 1.44-0.263 2.88-0.394 4.32-0.184 2.02-0.372 4.04-0.56 6.05-0.162 1.75-0.162 1.75-0.326 3.54-0.315 2.77-0.805 5.41-1.36 8.14-0.181 1.71-0.334 3.41-0.465 5.12-0.117 1.43-0.117 1.43-0.236 2.89-0.158 1.99-0.311 3.98-0.461 5.97-0.0793 0.954-0.159 1.91-0.24 2.89-0.067 0.864-0.134 1.73-0.203 2.62-0.43 2.73-1.36 4.95-2.39 7.51-0.376 2.23-0.376 2.23-0.5 4.51-0.52 6.15-1.5 12.2-2.5 18.3-0.178 1.11-0.356 2.21-0.539 3.35-0.75 4.63-1.53 9.24-2.46 13.8-0.91 4.97-0.91 4.97-1.81 9.94-0.598 3.25-1.28 6.37-2.19 9.55-1.11 3.87-1.86 7.73-2.56 11.7-0.714 3.97-1.45 7.9-2.44 11.8-0.614 3.14-1.22 6.28-1.81 9.42-0.725 3.74-1.75 7.06-3.19 10.6-0.636 2.39-1.24 4.78-1.81 7.19-4.48 18.3-9.98 36.3-16 54.2-1.14 3.46-2.2 6.93-3.25 10.4-1.41 4.63-3.01 9.1-4.87 13.6-1.71 4.17-3.25 8.41-4.82 12.6-1.25 2.98-1.25 2.98-2.81 5.57-1.44 2.41-2.16 4.46-2.88 7.16-1.22 4.31-2.8 8.28-4.7 12.3-0.974 2.06-0.974 2.06-1.87 4.91h-3l1 3c-0.602 1.88-0.602 1.88-1.62 4-0.375 0.795-0.75 1.59-1.14 2.41-0.409 0.855-0.817 1.71-1.24 2.59-0.815 1.81-1.63 3.62-2.44 5.44-2.39 5.25-4.95 10.4-7.56 15.6-0.855 1.71-1.71 3.42-2.56 5.12l-6.44 12.9h-3l1 3c-1.06 2.56-1.06 2.56-3 6-0.485 0.862-0.969 1.72-1.47 2.61-3.09 5.36-3.09 5.36-4.53 7.39h-2l-0.25 2.12c-0.934 3.58-2.64 5.83-4.75 8.88-0.785 1.39-1.55 2.78-2.31 4.19-4.45 8.09-9.41 15.7-15.2 22.9-1.66 2.07-1.66 2.07-3.32 5.01-0.392 0.639-0.784 1.28-1.19 1.94h-2c-0.115 0.583-0.229 1.17-0.348 1.77-0.701 2.4-1.63 3.96-3.09 5.98-0.432 0.614-0.864 1.23-1.31 1.86-0.414 0.459-0.828 0.918-1.25 1.39h-2l-0.188 1.62c-1.17 3.42-3.48 5.64-5.81 8.38-0.681 1.33-1.35 2.66-2 4l-2 1c-0.495 0.846-0.99 1.69-1.5 2.56l-1.5 2.44h-2c-0.237 0.731-0.474 1.46-0.719 2.21-1.48 3.21-3.21 4.94-5.78 7.35-2.92 2.73-4.73 4.9-6.5 8.44-1.96 1.86-4.03 3.52-6.12 5.22-1.94 1.85-2.72 3.4-3.88 5.78-1.48 1.42-1.48 1.42-3.19 2.75-3.46 2.84-6.29 5.97-9.19 9.37-2.09 2.42-4.33 4.65-6.62 6.88l-5 5c-0.742 0.763-1.48 1.53-2.25 2.31-10.1 9.85-10.1 9.85-13.8 11.7-1.67 1.67-3.33 3.33-5 5-2.11 1.88-4.27 3.69-6.44 5.5-0.547 0.46-1.09 0.92-1.66 1.39-1.63 1.37-3.27 2.74-4.9 4.11-0.522 0.437-1.04 0.873-1.58 1.32-3.02 2.52-6.04 5.03-9.11 7.49-0.746 0.605-1.49 1.21-2.26 1.83-2.05 1.36-2.05 1.36-5.05 1.36l-1 3c-1.64 1.05-3.31 2.04-5 3l-2.62 2.19c-2.38 1.81-2.38 1.81-5.38 1.81-0.34 0.897-0.34 0.897-0.688 1.81-1.68 2.81-3.44 3.65-6.31 5.19l-2.62 1.69c-2.38 1.31-2.38 1.31-5.38 1.31l-1 3c-2.23 1.51-4.42 2.86-6.75 4.19-1.37 0.797-2.73 1.6-4.1 2.39-1.04 0.603-1.04 0.603-2.1 1.22-3.09 1.81-6.13 3.69-9.17 5.58-23.7 14.6-23.7 14.6-28.9 14.6l-1 3c-1.67 0.844-1.67 0.844-3.75 1.5-2.35 0.754-4.31 1.53-6.43 2.81-3.93 2.35-8.05 4.24-12.2 6.19-0.825 0.391-1.65 0.781-2.5 1.18-7.01 3.3-14.1 6.32-21.3 9.13-4.71 1.85-9.25 3.85-13.8 6.19-12 6.11-24.9 10-37.6 14.2-5.53 1.82-11 3.72-16.4 5.8-1.81 0.67-3.62 1.34-5.44 2-0.844 0.309-1.69 0.619-2.56 0.938-7.92 2.8-15.9 5.17-24 7.31-6.87 1.82-13.7 3.66-20.6 5.62-13.7 3.95-27.4 7.13-41.4 9.67-2 0.27-2 0.27-3.02 1.46-1.35 0.32-2.7 0.588-4.07 0.832-0.867 0.157-1.73 0.314-2.63 0.475-0.947 0.167-1.89 0.333-2.87 0.505-0.971 0.174-1.94 0.348-2.94 0.527-12.3 2.18-24.6 4.22-36.9 6.21-2.35 0.408-4.64 0.913-6.96 1.45-7.12 1.46-14.4 1.66-21.6 2-0.777-1.68-0.777-1.68-1-4 1.81-2.45 1.81-2.45 4.44-5.12 0.929-0.965 1.85-1.93 2.78-2.9 0.468-0.49 0.936-0.979 1.42-1.48 2.81-3.05 5.27-6.39 7.77-9.69 0.789-0.891 0.789-0.891 1.59-1.8h2l0.812-2.44c0.392-0.846 0.784-1.69 1.19-2.56 0.99-0.33 1.98-0.66 3-1 0.674-1.66 1.34-3.33 2-5 1.31-1.35 2.65-2.68 4-4 5.57-6.51 10.8-13.3 16.1-20.1 2.17-2.78 4.37-5.53 6.65-8.22 1.86-2.25 3-4.14 4.25-6.73l2-1c0.495-0.846 0.99-1.69 1.5-2.56l1.5-2.44h2c0.0864-0.549 0.173-1.1 0.262-1.66 0.971-3.07 2.61-5.14 4.55-7.71 3.5-4.7 6.88-9.35 9.81-14.4 1.38-2.19 1.38-2.19 3.38-3.19 0.924-1.61 1.84-3.22 2.73-4.84 1.45-2.46 3.05-4.76 4.7-7.09 5.59-7.6 5.59-7.6 9.56-16.1l2-1c2.35-3.53 4.15-7.3 5.94-11.1 1.13-1.98 2.43-3.29 4.06-4.87l1.06-2.12c0.938-1.88 0.938-1.88 2.94-2.88 0.903-1.81 1.8-3.62 2.67-5.44 1.58-3.05 3.37-5.91 5.2-8.81 3.29-5.26 6.12-10.6 8.83-16.2 1.53-3.04 3.38-5.76 5.3-8.57 1.54-2.72 3.02-5.47 4.5-8.23 1.26-2.34 2.56-4.65 3.87-6.96 3.46-6.21 6.56-12.6 9.72-19 1.67-3.37 3.35-6.73 5.05-10.1 3.5-6.92 6.79-13.9 10-21 0.717-1.55 1.44-3.1 2.16-4.65 2.73-5.89 5.19-11.9 7.51-17.9 1.05-2.69 2.12-5.18 3.63-7.63 2.05-3.51 3.23-7.18 4.51-11 1.7-5.07 3.57-9.78 6-14.6 0.546-1.59 1.05-3.19 1.5-4.81 1.92-6.67 4.12-13.2 6.56-19.7 1.56-4.2 2.66-8.31 3.45-12.7 0.492-1.78 0.492-1.78 2.49-3.78 0.674-1.98 1.26-3.98 1.81-6 0.347-1.26 0.694-2.52 1.05-3.82 0.184-0.679 0.368-1.36 0.557-2.06 0.589-2.15 1.2-4.3 1.81-6.45 2.33-8.21 4.48-16.4 6.39-24.7 1.12-4.88 2.39-9.71 3.73-14.5 2.01-7.42 3.38-15 4.87-22.5 0.395-1.94 0.792-3.89 1.25-5.82 1.67-7.02 2.56-14.1 3.47-21.3 0.348-2.7 0.699-5.4 1.05-8.09 0.0862-0.664 0.172-1.33 0.261-2.01 0.608-4.65 1.29-9.29 2-13.9 11.4-70.3 11.4-70.3 1.75-139-0.343-2.74-0.639-5.48-0.902-8.23-0.17-1.69-0.34-3.38-0.51-5.07-0.263-2.66-0.524-5.32-0.783-7.98-0.252-2.57-0.51-5.14-0.77-7.71-0.074-0.784-0.148-1.57-0.224-2.37-0.514-5.05-1.53-9.73-2.81-14.6-0.346-2.01-0.663-4.02-0.945-6.04-1.01-6.82-2.24-13.6-3.55-20.4-0.379-1.96-0.749-3.93-1.12-5.9-1.74-9.02-3.93-17.8-6.39-26.7-0.619-2.29-1.24-4.58-1.85-6.87-0.892-3.31-1.79-6.61-2.68-9.92-0.573-2.12-1.14-4.25-1.71-6.38-0.468-1.75-0.949-3.49-1.45-5.22-1.07-3.83-1.88-6.86-0.31-10.6 6.76-4.95 16.6-6.95 24.5-9.53 3.92-1.27 7.8-2.63 11.7-4.04 10.2-3.66 20.2-7.22 30.8-9.44 1.07-0.447 1.07-0.447 2.16-0.902 3.98-1.54 8.07-2.47 12.2-3.47 1.8-0.442 3.6-0.884 5.4-1.33 0.887-0.218 1.77-0.437 2.69-0.662 4.61-1.15 9.2-2.4 13.8-3.64 11.2-2.96 22.4-5.49 33.8-7.87 0.836-0.176 1.67-0.351 2.53-0.532 65.2-13.6 131-20.8 198-21.6 2.71-0.0329 5.41-0.0732 8.12-0.115z" fill="#FAFEFE"/>
<path transform="translate(68.8 311)" d="m0 0c0.996 6.04e-4 1.99 0.00121 3.02 0.00183 36.6 0.0594 73 2.12 109 5.28 0.883 0.076 1.77 0.152 2.68 0.23 4.71 0.419 9.36 0.964 14 1.67 1.91 0.267 3.81 0.533 5.72 0.799 2.96 0.413 5.92 0.831 8.88 1.25 1.54 0.216 3.08 0.432 4.62 0.646 9.48 1.32 18.9 2.82 28.3 4.65 3.28 0.617 6.56 1.13 9.86 1.59 6 0.89 11.9 2.18 17.8 3.54 4.77 1.08 9.53 2.04 14.3 2.9 16.4 3 32.6 6.85 48.5 11.6 1.83 0.506 3.66 1.01 5.5 1.5 6.52 1.77 13 3.63 19.5 5.5 0.695 0.199 1.39 0.398 2.11 0.603 7.92 2.27 15.8 4.59 23.5 7.5 3.77 1.41 7.59 2.65 11.4 3.9 4.93 1.62 9.85 3.27 14.8 5l2.67 0.938c2.75 1.13 5.14 2.36 7.58 4.06 1.25 3.75 0.574 5.36-0.477 9.15-0.339 1.24-0.678 2.49-1.03 3.77-0.374 1.34-0.748 2.68-1.12 4.02-0.748 2.73-1.49 5.45-2.23 8.18-0.185 0.676-0.37 1.35-0.561 2.05-1.8 6.57-3.44 13.2-5.03 19.8-0.72 2.96-1.45 5.8-2.62 8.62-1.2 3.11-1.53 6.1-1.93 9.41-0.528 4.38-1.32 7.94-3 12-0.341 2.09-0.341 2.09-0.438 4.25-0.375 4.44-1.07 8.74-1.88 13.1-1.72 9.32-3.02 18.7-4.33 28.1-0.162 1.16-0.324 2.32-0.491 3.52-0.143 1.04-0.286 2.08-0.434 3.15-0.261 1.73-0.56 3.46-0.927 5.17-4.06 21.6-2.8 45-2.7 66.9 0.0109 3.03 0.0104 6.07 0.01 9.1-0.92 37.6-0.92 37.6 4.19 74.7 0.458 2.87 0.893 5.75 1.31 8.62 0.133 0.881 0.265 1.76 0.402 2.67 0.726 4.83 1.42 9.66 2.06 14.5 2.34 17.1 6.33 33.7 10.6 50.5 1.55 6.16 2.95 12.4 4.28 18.6 1.93 8.9 4.29 17.7 7.66 26.2 1.19 3.33 2.02 6.76 2.87 10.2 1.02 3.4 2.44 6.55 3.84 9.81 0.776 2.22 1.53 4.45 2.25 6.69 4.47 13.6 9.09 27.1 14.7 40.3 1.07 2.97 1.07 2.97 1.07 6.97h2c0.729 1.75 1.46 3.5 2.19 5.25 0.458 1.1 0.915 2.19 1.39 3.32 0.902 2.17 1.8 4.34 2.7 6.51 2.77 6.71 5.68 13.3 8.73 19.9 0.77 1.7 0.77 1.7 1.55 3.43 3.44 7.52 7.12 14.9 11 22.2 2.61 4.87 5.1 9.78 7.54 14.7 2.85 5.77 5.92 11.3 9.21 16.9 2.2 3.73 4.26 7.54 6.32 11.4 1.11 2.04 2.24 4.07 3.4 6.08 1.03 1.8 2.06 3.6 3.05 5.41 2.24 4.11 4.58 8.11 7.11 12 0.924 1.44 0.924 1.44 1.87 2.92 0.633 0.99 1.27 1.98 1.92 3 1.21 1.91 2.43 3.83 3.64 5.75 0.596 0.939 1.19 1.88 1.8 2.85 1.22 1.92 2.44 3.85 3.66 5.77 0.59 0.93 1.18 1.86 1.79 2.82 0.526 0.831 1.05 1.66 1.59 2.52 0.989 1.5 2.02 2.98 3.1 4.41 1.59 2.13 2.83 4.4 4.13 6.71 4.64 7.83 9.99 15.2 15.4 22.6 1.71 2.35 3.38 4.72 5.04 7.12 9.86 14.1 20.3 27.9 30.9 41.5 0.518 0.67 1.04 1.34 1.57 2.03 1.49 1.93 2.99 3.86 4.49 5.78 0.441 0.569 0.882 1.14 1.34 1.72 1.87 2.38 3.75 4.6 5.91 6.73 1.69 1.74 1.69 1.74 1.69 3.74h2c1.29 1.45 2.51 2.96 3.69 4.5 2.53 3.25 5.07 6.43 7.81 9.5 6.03 6.81 11.6 14 17.1 21.3 1.35 1.83 1.35 1.83 3.45 2.71v2c-3.98-0.62-7.96-1.25-11.9-1.88-1.12-0.174-2.23-0.348-3.38-0.527-5.61-0.888-11.1-1.88-16.7-3.16-3.06-0.67-6.15-1.09-9.25-1.5-3.95-0.532-7.84-1.15-11.8-1.94-2.02-0.356-4.03-0.706-6.05-1.05-12.8-2.22-25.4-4.55-37.9-7.95-4.53-1.16-9.06-2.25-13.6-3.25-8.84-2.03-17.6-4.48-26.3-6.9-3.16-0.871-6.32-1.73-9.48-2.58-10.6-2.9-21.1-5.94-31.3-9.99-4.04-1.59-8.12-2.95-12.2-4.28-1.56-0.519-3.13-1.04-4.69-1.56-0.684-0.228-1.37-0.456-2.07-0.691-1.72-0.572-3.43-1.14-5.14-1.72-1.99-0.662-3.99-1.31-5.99-1.96-7.6-2.46-14.8-5.33-21.9-9.01-4.55-2.32-9.31-4.05-14.1-5.82-3.16-1.25-6.13-2.7-9.15-4.25-5.19-2.45-10.4-4.79-15.8-6.81-5.83-2.28-11.2-5.29-16.7-8.29-3.14-1.7-6.32-3.31-9.52-4.9-6.12-3.27-12.1-6.8-18.1-10.3-2.47-1.43-4.96-2.82-7.47-4.19-4.41-2.43-8.63-5.12-12.9-7.85-1.66-1.06-3.33-2.1-5.03-3.11-4-2.42-7.84-5.08-11.7-7.7-2.69-1.83-2.69-1.83-5.15-2.96-1.69-0.879-1.69-0.879-2.69-2.88-1.68-0.939-3.35-1.88-5.04-2.8-2.03-1.24-3.69-2.62-5.46-4.2-2.72-2.43-5.49-4.15-8.71-5.9-2.74-1.69-4.99-3.84-7.37-5.99-2.99-2.6-6.1-5-9.23-7.42-5.48-4.25-10.6-8.7-15.7-13.4-2.14-1.98-4.31-3.92-6.51-5.83-0.93-0.812-0.93-0.812-1.88-1.64-1.59-1.39-3.18-2.77-4.77-4.16-0.919-0.81-1.84-1.62-2.79-2.45-0.856-0.749-1.71-1.5-2.59-2.27-1.91-1.92-1.91-1.92-1.91-3.92l-1.62-0.625c-3.29-1.91-5.97-4.42-8.38-7.38v-2c-0.598-0.262-1.2-0.523-1.81-0.793-2.33-1.29-3.5-2.47-5.19-4.52-2.31-2.74-4.66-5.42-7.12-8.04-0.546-0.582-1.09-1.16-1.65-1.76-1.1-1.17-2.2-2.33-3.31-3.5-3.91-4.17-3.91-4.17-3.91-6.39-0.99-0.33-1.98-0.66-3-1-1.84-1.98-1.84-1.98-3.94-4.62-0.793-0.995-1.59-1.99-2.4-3.02-0.428-0.542-0.856-1.08-1.3-1.64-1.42-1.79-2.86-3.56-4.31-5.33-5.63-6.91-10.9-13.9-15.9-21.3-2.11-3.06-4.32-6.02-6.58-8.98-7.25-9.59-13.8-19.6-19.8-30-2-3.49-4.07-6.94-6.14-10.4-0.378-0.63-0.755-1.26-1.14-1.91-1.92-3.2-3.86-6.39-5.81-9.58-7.38-12.1-13.5-24.7-19.5-37.5-1.87-3.97-3.76-7.91-5.76-11.8-2.34-4.62-4.45-9.34-6.56-14.1-0.337-0.753-0.674-1.51-1.02-2.28-2.13-4.81-4.05-9.66-5.85-14.6-3.12-8.27-3.12-8.27-6.5-16.4-1.94-4.6-3.58-9.29-5.24-14-1.11-3.13-2.24-6.26-3.39-9.38-2.56-7.05-4.86-14.1-6.88-21.3-1.03-3.65-2.06-7.02-3.56-10.5-2.12-4.97-3.2-10.1-4.44-15.4-0.658-2.73-1.33-5.46-2-8.19-0.17-0.689-0.34-1.38-0.515-2.09-1.07-4.28-2.36-8.42-3.83-12.6-1.05-3.46-1.58-7-2.12-10.6-0.442-2.58-0.442-2.58-1.47-4.86-1.46-3.76-2.12-7.58-2.87-11.5-0.345-1.77-0.692-3.55-1.04-5.32-0.183-0.941-0.367-1.88-0.556-2.85-1.06-5.39-2.17-10.8-3.28-16.1-0.214-1.05-0.429-2.1-0.65-3.18-0.202-0.975-0.404-1.95-0.612-2.95-0.179-0.868-0.358-1.74-0.542-2.63-0.434-2.15-0.434-2.15-1.51-4.11-0.266-1.72-0.487-3.44-0.684-5.16-0.123-1.04-0.246-2.08-0.373-3.15-0.251-2.18-0.501-4.36-0.75-6.55-0.765-6.6-0.765-6.6-2.2-13.1-1.55-5.69-1.91-11.6-2.5-17.4-0.877-9.23-0.877-9.23-2.5-18.3-1.65-7.71-1.97-15.6-2.57-23.5-0.188-2.43-0.378-4.86-0.571-7.29-0.118-1.5-0.234-3-0.347-4.5-0.34-4.37-0.895-8.68-1.52-13-0.0646-2.48-0.0861-4.96-0.0625-7.44 0.00902-1.24 0.018-2.47 0.0273-3.75 0.0116-0.929 0.0232-1.86 0.0352-2.82h-1c-0.783-12.2-1.17-24.3-1.2-36.5-0.00283-0.832-0.00565-1.66-0.00857-2.52-0.0148-4.38-0.0242-8.76-0.0285-13.1-0.00553-4.49-0.0297-8.98-0.058-13.5-0.0187-3.49-0.0238-6.99-0.0254-10.5-3e-3 -1.66-0.0109-3.31-0.0242-4.97-0.108-14.6 1.73-26.6 11.9-37.8l2.44-2.19 2.38-2.5c15-14.3 33-12.7 52.4-12.7zm-51.8 260 1 2z" fill="#FAFEFE"/>
<path transform="translate(107,994)" d="m0 0c1.34 0.95 2.67 1.91 4 2.88 0.742 0.534 1.48 1.07 2.25 1.62 0.866 0.746 0.866 0.746 1.75 1.51v2c0.576 0.24 1.15 0.48 1.75 0.727 2.71 1.53 4.28 3.29 6.32 5.65 0.785 0.891 1.57 1.78 2.38 2.7 0.844 0.966 1.69 1.93 2.56 2.93 5.57 6.35 11 12.5 17.9 17.4 2.59 2 4.77 4.28 7.07 6.6 2.91 2.62 5.84 5.21 8.77 7.79 0.736 0.728 1.47 1.46 2.23 2.21v2l1.69 0.719c3.81 2.11 6.72 5.22 9.88 8.19 2.12 1.82 3.89 3.01 6.44 4.09v2l2 0.562c3.67 1.76 6.25 4.14 9.23 6.88 1.7 1.63 1.7 1.63 3.77 2.56v2c0.673 0.217 1.35 0.433 2.04 0.656 3.89 1.77 6.97 4.22 10.3 6.84 6.46 4.94 13 9.54 19.8 14 3.99 2.62 7.92 5.34 11.8 8.06 9.63 6.65 19.3 13.2 29.6 18.7 4.56 2.47 9.05 5.07 13.5 7.66 13.2 7.57 26.5 14.6 40.3 21 3.58 1.67 7.12 3.43 10.7 5.21 2.81 1.39 5.69 2.61 8.58 3.84 2.18 1.03 2.18 1.03 4.51 2.49 3.11 1.79 6.21 2.88 9.6 4.04 4.57 1.55 8.75 3.34 13.1 5.5 2.62 1.06 5.28 2.03 7.94 3 3.99 1.46 7.95 2.93 11.9 4.61 3.03 1.31 6.06 2.39 9.21 3.39v2c0.839 0.13 0.839 0.13 1.7 0.262 6.61 1.16 12.7 3.2 18.9 5.52 3.47 1.26 6.96 2.32 10.5 3.35 2.99 0.909 5.94 1.9 8.89 2.91 10 3.4 20.1 6.36 30.3 9.2 2.71 0.764 5.42 1.54 8.13 2.33 0.901 0.26 1.8 0.521 2.73 0.789 1.68 0.485 3.35 0.972 5.03 1.46 15.1 4.35 30.4 7.71 45.8 11 3.34 0.723 6.69 1.45 10 2.18 11.3 2.45 22.6 4.69 34 6.36 3.93 0.581 7.8 1.36 11.7 2.18 6.37 1.32 12.7 2.19 19.2 2.91 3.16 0.372 6.27 0.886 9.41 1.43 8.75 1.48 17.6 2.49 26.4 3.53 0.911 0.109 1.82 0.218 2.76 0.331 14.4 1.72 28.8 3.16 43.2 4.24 1.3 0.103 2.61 0.206 3.95 0.313 1.13 0.0834 2.26 0.167 3.43 0.253 2.97 0.415 5.31 1.18 8.02 2.42-3.47 3.04-6.94 5.08-11.1 7.05-2.13 1.01-2.13 1.01-4.8 2.7-2.12 1.25-2.12 1.25-4.12 1.25l-1 3c-1.55 0.967-3.12 1.91-4.73 2.78-2.66 1.43-5.24 2.99-7.83 4.54-5.65 3.31-11.4 6.24-17.3 9.11-3.87 1.95-7.45 4.1-11 6.58-2.7 1.73-5.3 2.96-8.24 4.2-3.02 1.29-5.98 2.71-8.95 4.12-7.24 3.41-14.6 6.57-21.9 9.69l-3.48 1.5c-15.8 6.75-31.9 13.2-48.5 17.7-2.56 0.712-5.05 1.51-7.56 2.39-4.72 1.62-9.56 2.67-14.4 3.75-2.27 0.523-4.52 1.15-6.76 1.82-3.47 0.934-6.76 1.29-10.3 1.53-2.15 0.197-2.15 0.197-3.92 2.34-2.36 0.487-2.36 0.487-5.31 0.816-1.08 0.124-2.15 0.249-3.26 0.377-1.7 0.183-1.7 0.183-3.43 0.369-1.65 0.189-1.65 0.189-3.33 0.381-4.16 0.472-8.32 0.942-12.5 1.3-0.86 0.0736-1.72 0.147-2.61 0.223-1.11 0.085-1.11 0.085-2.25 0.172-2.43 0.308-2.43 0.308-5.09 1.36-3.81 1.19-7.45 1.48-11.4 1.68-0.79 0.0445-1.58 0.089-2.39 0.135-2.58 0.14-5.16 0.264-7.74 0.385-0.887 0.0433-1.77 0.0866-2.69 0.131-22.2 1.06-44.1 0.378-66.2-1.26-1.02-0.0744-2.05-0.149-3.1-0.226-0.94-0.079-1.88-0.158-2.85-0.239-0.811-0.067-1.62-0.134-2.46-0.203-2.65-0.447-4.87-1.37-7.34-2.39-2.45-0.308-2.45-0.308-5.06-0.375-9.14-0.639-18-2.72-26.9-4.62-1.73-0.361-3.46-0.721-5.18-1.08-1.63-0.347-3.25-0.694-4.88-1.04-0.756-0.158-1.51-0.317-2.29-0.48-3.4-0.748-5.71-1.44-8.65-3.4-3.7-0.829-7.41-1.47-11.1-2.12-3.99-0.908-7.16-2.18-10.9-3.88-1.99-0.693-3.99-1.36-6-2-1.38-0.457-2.75-0.915-4.12-1.38-2.59-0.865-5.18-1.72-7.77-2.57-9.2-3.01-18-6.52-26.8-10.6-2.55-1.14-5.11-2.23-7.7-3.29-9.05-3.71-17.8-7.66-26.3-12.4-2.73-1.5-5.48-2.93-8.28-4.3-6.75-3.33-13.4-6.94-20-10.5v-2c-1.21-0.34-1.21-0.34-2.44-0.688-6.96-2.57-13-6.56-19.1-10.7-2.71-1.77-5.5-3.37-8.32-4.97-4.99-2.88-9.62-6.03-14.2-9.47-2.59-1.92-5.2-3.8-7.84-5.67-7.78-5.51-15.4-11.2-23-16.9-2.04-1.53-4.08-3.06-6.12-4.58-3.99-2.97-7.96-5.96-11.9-8.96-0.611-0.463-1.22-0.925-1.85-1.4-7.14-5.43-13.9-11.1-20.4-17.2-5.65-5.3-11.6-10.1-17.7-14.9-1.36-1.09-2.68-2.24-3.98-3.41v-2c-0.538-0.209-1.08-0.418-1.63-0.633-3.29-1.89-5.7-4.53-8.31-7.24-3.53-3.65-7.08-6.96-11.1-10.1-1.16-1.24-2.29-2.51-3.38-3.81-2.29-2.69-4.63-5.19-7.19-7.62-9.54-9.41-13.4-19.7-13.6-32.9 0.089-8.64 1.51-17.2 6.19-24.6l3-1c0.125-0.576 0.25-1.15 0.379-1.75 0.924-3.35 3.06-4.94 5.56-7.32 2.71-2.59 4.98-4.81 7.06-7.94h2c0.227-0.536 0.454-1.07 0.688-1.62 4.12-7.46 10.7-12.2 17.3-17.4 2.87-2.33 5.66-4.65 8.25-7.31 1.75-1.69 1.75-1.69 3.75-1.69 0.344-0.845 0.344-0.845 0.695-1.71 1.65-2.91 3.69-4.75 6.18-6.98 0.864-0.788 1.73-1.58 2.62-2.39 2.38-1.82 3.67-2.35 6.51-2.93l2-4c1.33-0.362 2.66-0.697 4-1l1-3c1.34-1.33 1.34-1.33 3.02-2.66 0.61-0.482 1.22-0.964 1.85-1.46 0.641-0.495 1.28-0.99 1.94-1.5 0.63-0.503 1.26-1.01 1.91-1.52 4.78-3.73 4.78-3.73 7.41-4.37 2.09-0.305 2.09-0.305 3.11-2.54 0.248-0.639 0.495-1.28 0.75-1.94h3l0.75-1.88c1.47-2.5 2.66-2.96 5.25-4.12l1-2zm-105 103 1 2z" fill="#FAFEFE"/>
<path transform="translate(1491,994)" d="m0 0c5.58 4.08 10.9 8.38 16.3 12.8 2.41 1.96 4.83 3.89 7.29 5.79l2.16 1.67c1.69 1.3 3.37 2.61 5.06 3.91l2.78 2.17c0.847 0.656 1.69 1.31 2.57 1.99 0.617 0.561 1.23 1.12 1.87 1.7v2c0.579 0.272 1.16 0.544 1.75 0.824 5.86 3.07 10.7 7.47 15.2 12.2 1.16 1.01 2.33 2.01 3.5 3 8.14 6.91 8.14 6.91 9.5 11l1.69 0.812c3.35 1.72 5.94 4.27 8.31 7.19v2l1.94 0.812c2.06 1.19 2.06 1.19 3.06 4.19l4 2 1 3c0.897 0.443 0.897 0.443 1.81 0.895 7.65 3.87 13.1 14.9 15.9 22.7 1.13 3.57 1.54 6.67 1.25 10.4h2c-0.32 3-0.657 6-1 9l-0.438 3.88c-0.562 3.12-0.562 3.12-2.56 6.12-0.291 0.937-0.583 1.87-0.883 2.84-1.22 3.45-2.8 5.81-4.99 8.72-0.678 0.909-1.36 1.82-2.05 2.75-0.683 0.886-1.37 1.77-2.07 2.68-0.67 0.874-1.34 1.75-2.03 2.65-2.24 2.67-4.66 4.68-7.38 6.82-1.71 1.47-1.71 1.47-2.61 3.65-0.977 1.88-0.977 1.88-3.98 2.88-1.87 2.01-3.56 4.14-5.28 6.29-1.72 1.71-1.72 1.71-4.72 1.71-0.227 0.557-0.454 1.11-0.688 1.69-1.69 2.97-3.84 4.96-6.31 7.31-0.722 0.763-1.44 1.53-2.19 2.31-3.29 3.15-6.79 5.93-10.4 8.75-2.02 1.61-3.99 3.25-5.94 4.94-2.5 2-2.5 2-4.5 2-0.248 0.597-0.495 1.19-0.75 1.81-1.44 2.53-2.87 3.61-5.25 5.25-2.78 1.93-4.07 3.05-6 5.94-1.65 1.03-3.32 2.02-5 3l-2.69 2.19c-2.31 1.81-2.31 1.81-4.31 1.81l-1 3c-1.38 0.977-2.77 1.94-4.21 2.84-1.92 1.24-3.72 2.58-5.54 3.97-3.07 2.33-6.2 4.56-9.38 6.75-2.9 2.01-5.66 4.05-8.31 6.38-2.56 2.06-2.56 2.06-5.56 2.06l-1 3c-1.75 1.04-3.5 2.07-5.3 3.03-1.91 1.09-3.19 2.39-4.7 3.97-1.64 1.04-3.31 2.04-5 3l-2.62 1.69c-2.38 1.31-2.38 1.31-5.38 1.31l-1 3c-2 0.667-4 1.33-6 2l-1 3c-1.67 1.06-1.67 1.06-3.75 2-4.3 2.02-8.22 4.28-12.1 7-3.27 2.09-6.55 3.5-10.1 5-2.3 1.3-4.52 2.69-6.73 4.12-5.25 3.36-10.7 6.15-16.3 8.88-1.67 0.831-3.33 1.66-5 2.5-0.821 0.41-1.64 0.82-2.49 1.24-1.71 0.855-3.41 1.71-5.12 2.58-0.852 0.431-1.7 0.861-2.58 1.3-0.757 0.384-1.51 0.768-2.29 1.16-5.93 2.85-12.1 5.27-18.1 7.77-1.11 0.455-1.11 0.455-2.23 0.92-6.34 2.61-12.7 5.14-19.1 7.52-1.14 0.431-2.28 0.861-3.45 1.3-1.23 0.456-2.46 0.913-3.73 1.38-1.17 0.437-2.34 0.874-3.54 1.32-2.99 0.904-5.18 1.2-8.27 0.988v2c-32.6 9.91-32.6 9.91-46.6 12.5-2.49 0.476-2.49 0.476-4.97 1.5-5.17 1.54-10.4 1.96-15.8 2.53-6.65 0.715-13.1 1.5-19.7 3.04-24.8 5.59-52.6 3.88-77.8 2.65-0.861-0.0409-1.72-0.0818-2.61-0.124-11.6-0.57-23.3-1.21-34.6-4.06-2.44-0.286-4.87-0.554-7.31-0.812-6.94-0.801-13.4-2.28-20.1-4.18-3.3-0.928-6.6-1.74-9.95-2.5l-3.16-0.719c-1.86-0.418-3.72-0.836-5.57-1.25-2.26-0.504-4.51-1.02-6.77-1.53-0.702-0.154-1.4-0.308-2.13-0.467-4.62-1.06-8.68-2.59-13-4.53-1.32-0.482-2.66-0.944-4-1.38-0.754-0.246-1.51-0.492-2.29-0.746-1.34-0.435-1.34-0.435-2.71-0.879-7.57-2.47-15.1-4.93-22.5-7.97-3.01-1.23-6.05-2.38-9.09-3.53-4.55-1.74-9.03-3.58-13.5-5.61-1.79-0.811-3.6-1.57-5.41-2.33-4.61-2.02-9.07-4.29-13.6-6.56-1.67-0.834-3.33-1.67-5-2.5-8.33-4.17-16.7-8.33-25-12.5v-2c-0.839-0.241-1.68-0.482-2.54-0.73-3.94-1.45-7.22-3.37-10.8-5.58-1.33-0.815-2.66-1.63-3.99-2.44-0.636-0.389-1.27-0.779-1.93-1.18-2.2-1.33-4.44-2.58-6.7-3.82-7.29-3.99-14.2-8.61-21.1-13.2 4.9-2.62 9.12-3.16 14.7-3.46 1.34-0.0775 2.68-0.155 4.02-0.233 0.698-0.0391 1.4-0.0782 2.11-0.118 10.5-0.595 21.1-1.25 31.6-2.25 0.86-0.0792 1.72-0.158 2.61-0.24 4.14-0.338 4.14-0.338 8.02-1.7 2.04-0.28 4.09-0.512 6.14-0.719 1.85-0.191 1.85-0.191 3.74-0.387 1.3-0.13 2.59-0.26 3.93-0.395 2.55-0.258 5.1-0.519 7.64-0.781 1.13-0.114 2.27-0.228 3.44-0.346 2.75-0.33 5.4-0.785 8.11-1.37 5.43-1.16 10.9-1.8 16.4-2.5 2.9-0.404 5.73-0.897 8.59-1.5 2.6-0.475 5.19-0.939 7.79-1.4 2.65-0.493 5.28-1.01 7.92-1.54 3.47-0.699 6.95-1.37 10.4-2.02 8.29-1.54 16.5-3.11 24.7-5.27 3.34-0.809 6.69-1.46 10.1-2.1 10.9-2.06 21.4-4.86 31.9-8.07 2.38-0.655 4.76-1.12 7.18-1.6 1.61-0.408 3.21-0.832 4.81-1.27 0.905-0.247 1.81-0.494 2.74-0.749 0.952-0.262 1.9-0.524 2.89-0.794 0.98-0.269 1.96-0.538 2.97-0.816 2.86-0.788 5.73-1.58 8.59-2.37 1.12-0.309 1.12-0.309 2.27-0.624 1.87-0.517 3.74-1.04 5.61-1.56 1.01-0.282 2.02-0.565 3.05-0.855 3-0.936 5.92-2.02 8.86-3.14 4.13-1.53 8.33-2.88 12.5-4.26 6.6-2.18 13.2-4.39 19.6-6.93 2.06-0.629 2.06-0.629 6.06-0.629v-2c0.944-0.303 1.89-0.606 2.86-0.918 8.22-2.67 16.2-5.65 24.1-9.08 19-8 19-8 23-8v-2c0.595-0.229 1.19-0.459 1.8-0.695 6.51-2.55 12.8-5.4 19.1-8.43 0.993-0.475 1.99-0.95 3.01-1.44 7.33-3.53 14.6-7.24 21.7-11.2 4.98-2.7 9.96-4.64 15.4-6.26v-2c0.638-0.182 1.28-0.364 1.93-0.551 1.24-0.377 1.24-0.377 2.5-0.762 0.824-0.244 1.65-0.487 2.5-0.738 1.02-0.47 1.02-0.47 2.07-0.949l1-3c2.9-1.45 4.74-2 8-2l1-3c1.97-1.05 3.98-2.05 6-3l2.69-1.81c3.78-2.49 7.7-4.59 11.7-6.73 2.15-1.2 4.17-2.44 6.19-3.84 2.44-1.62 2.44-1.62 4.44-1.62l1-3c2.32-1.03 4.65-2.03 7-3 1.02-0.981 2.02-1.98 3-3l2.12-0.5 1.88-0.5 1-3c1.62-1.07 3.31-2.05 5-3 6.39-3.95 12.2-8.46 18-13.2 3.23-2.61 6.03-4.32 9.96-5.78 0.699-1.32 1.37-2.65 2-4 1.94-1.06 1.94-1.06 4-2 1.02-0.979 2.02-1.98 3-3 3.67-3 3.67-3 6-3l1-3c1.33-0.667 2.67-1.33 4-2l1.56-2.12c0.712-0.928 0.712-0.928 1.44-1.88h3l0.25-1.88c0.75-2.12 0.75-2.12 2.5-3.06l2.25-1.06 5-5h2c0.268-0.639 0.536-1.28 0.812-1.94 1.19-2.06 1.19-2.06 4.19-3.06 0.689-1.32 1.35-2.66 2-4 1.66-1.7 1.66-1.7 3.5-3.25l1.84-1.58c1.66-1.17 1.66-1.17 3.66-1.17l1-3 3-2 1-3c0.99-0.33 1.98-0.66 3-1l0.875-1.75c1.52-3.04 3.67-4.91 6.12-7.25l5-5c0.804-0.825 1.61-1.65 2.44-2.5 2.74-2.68 5.59-5.08 8.56-7.5z" fill="#FAFEFE"/>
<path transform="translate(798,1299)" d="m0 0c5.17 1.64 9.13 4.81 13.4 8 1.62 1.18 3.23 2.36 4.85 3.54 1.57 1.15 3.14 2.3 4.71 3.46 7.54 5.51 15.1 10.8 23.1 15.6 5.19 3.16 10.2 6.55 15.3 9.89 7.76 5.09 15.5 10 23.7 14.5 2.24 1.22 4.46 2.47 6.69 3.71 8.63 4.8 17.3 9.48 26.2 13.8 2.17 1.09 4.29 2.26 6.39 3.48 3.98 2.3 8.13 4.11 12.3 5.93 6.32 2.76 12.5 5.68 18.6 8.82 3.4 1.66 6.88 3 10.4 4.36 3.28 1.37 6.23 3.1 9.27 4.95v3h-2l-0.359 2.23c-0.634 2.74-1.48 4.6-2.89 7.02-0.449 0.779-0.897 1.56-1.36 2.36-0.459 0.789-0.918 1.58-1.39 2.39-0.837 1.5-1.67 3-2.5 4.5-0.412 0.74-0.825 1.48-1.25 2.24-0.842 1.52-1.68 3.05-2.5 4.58-1.98 3.65-4 7.13-6.44 10.5-1.74 2.39-3.13 4.5-4.31 7.19h-2l-0.375 1.75c-0.631 2.27-1.51 4.18-2.62 6.25h-2c-0.268 0.969-0.536 1.94-0.812 2.94l-1.19 3.06c-0.99 0.33-1.98 0.66-3 1-0.378 1.32-0.702 2.66-1 4-2.33 4.24-5.18 8.06-8.06 11.9-3.76 5.09-7.47 10.2-11.1 15.4-4.93 6.94-10.2 13.6-15.7 20.1-2.12 2.42-2.12 2.42-3.12 4.69-1.47 2.84-3.72 4.71-6 6.94-0.906 1.1-1.8 2.2-2.69 3.31-0.763 0.887-1.53 1.77-2.31 2.69h-2l-0.812 2.44c-0.392 0.846-0.784 1.69-1.19 2.56-0.99 0.33-1.98 0.66-3 1l-2 4c-0.99 0.33-1.98 0.66-3 1-0.689 1.32-1.35 2.66-2 4-1.42 1.68-2.88 3.33-4.38 4.94-2.38 2.57-4.66 5.1-6.79 7.88-0.606 0.721-1.21 1.44-1.84 2.18h-2c-0.0902 0.593-0.18 1.19-0.273 1.8-0.912 2.76-2.09 3.65-4.35 5.45-2.91 2.42-5.44 4.86-7.88 7.75-2.99 3.54-6.24 6.51-9.8 9.46-1.93 1.63-1.93 1.63-3.7 4.54-2.31 1.43-4.6 2.72-7 4l-3.38 2.06c-11.6 5.67-24.7 5.93-36.7 1.89-8.9-3.42-15.3-8.17-21.9-15l-2.88-2.31c-3.07-2.51-5.52-5.37-8.07-8.39-2.41-2.7-4.96-5.21-7.55-7.74-4.05-3.97-7.63-8.11-11-12.6-1.95-2.54-4.15-4.71-6.47-6.92-5.25-5.02-9.96-10.3-14.5-15.9-2.83-3.48-5.75-6.87-8.68-10.3-3.67-4.25-7.25-8.51-10.5-13.1-1.69-2.31-3.49-4.52-5.28-6.75-1.55-1.99-3.09-3.99-4.62-6-1.16-1.52-1.16-1.52-2.35-3.06-1.81-2.63-3-4.93-4.02-7.94h-2c-1.49-1.95-1.49-1.95-3.23-4.68-0.958-1.49-0.958-1.49-1.94-3.01-0.667-1.05-1.33-2.1-2.02-3.19-1.3-2.04-2.61-4.08-3.92-6.12-0.971-1.51-0.971-1.51-1.96-3.06-1.83-2.79-3.71-5.52-5.64-8.24-2.81-3.97-5.4-8.01-7.86-12.2-0.76-1.29-1.52-2.57-2.28-3.86-0.364-0.617-0.727-1.23-1.1-1.87-1.97-3.3-4.01-6.56-6.06-9.82-0.996-1.95-0.996-1.95-0.996-4.95h-2c-1.7-2.93-3.39-5.87-5.06-8.81-0.485-0.833-0.971-1.67-1.47-2.53-0.454-0.802-0.909-1.6-1.38-2.43-0.636-1.11-0.636-1.11-1.29-2.24-0.804-1.99-0.804-1.99 0.196-4.99 1.64-0.992 1.64-0.992 3.81-1.88 0.808-0.336 1.62-0.673 2.45-1.02 1.36-0.547 1.36-0.547 2.74-1.11 2.04-0.853 4.08-1.71 6.12-2.56 2.64-1.1 5.28-2.19 7.91-3.28 3.75-1.58 7.37-3.35 11-5.19 1.75-0.861 3.54-1.64 5.34-2.4 5.83-2.51 11.5-5.42 17.1-8.38 2.56-1.19 2.56-1.19 5.56-1.19l1-3c1.64-0.922 1.64-0.922 3.81-1.75 3.87-1.6 7.4-3.48 11-5.62 16.2-9.62 16.2-9.62 20.2-9.62l1-3c1.86-0.945 3.72-1.88 5.61-2.75 3.6-1.88 6.76-4.32 10-6.76 2.52-1.57 4.48-2.1 7.39-2.49l1-3c3.37-2.12 6.71-3.87 10.3-5.56 2.94-1.3 2.94-1.3 4.69-4.44 1.61-0.937 3.22-1.87 4.86-2.75 3.5-2.04 6.73-4.47 10-6.86 2.14-1.39 2.14-1.39 4.14-1.39l1-3c1.75-1.03 3.5-2.06 5.29-3.02 1.84-0.957 1.84-0.957 3.46-2.73l1.25-1.25h3l1-3z" fill="#FAFEFE"/>
<path transform="translate(417,86)" d="m0 0c1.37 0.518 1.37 0.518 2.77 1.05 5.33 2.05 10.5 4.41 15.7 6.8 5.5 2.52 11.1 4.79 16.7 7 8.04 3.31 15.9 7 23.8 10.6 1.03 0.465 2.06 0.929 3.12 1.41 6.13 2.8 12 5.81 17.9 9.15 8.52 4.67 17.1 9.12 25.9 13.4 4.86 2.56 9.11 4.95 12.1 9.64l-2 4h-2c-0.186 0.866-0.186 0.866-0.375 1.75-0.631 2.27-1.51 4.18-2.62 6.25h-2l-2 6h-2l-0.312 1.69c-0.826 2.78-2.17 4.84-3.69 7.31-1.11 1.89-2.21 3.79-3.31 5.69-2.21 3.8-4.45 7.57-6.75 11.3-2.83 4.67-5.21 9.5-7.54 14.4-1.39 2.57-1.39 2.57-2.95 4.1-1.91 1.93-2.5 3.93-3.45 6.46-0.808 1.56-1.64 3.1-2.5 4.62-6.99 12.7-13.7 25.5-19.7 38.6-1.82 3.94-3.76 7.82-5.75 11.7-1.12 2.32-2.06 4.68-3.01 7.08-0.7 1.61-1.41 3.21-2.12 4.81-0.353 0.79-0.706 1.58-1.07 2.39-0.266 0.592-0.531 1.18-0.805 1.79-4.53-0.472-8.34-1.37-12.6-3.06-9.2-3.62-18.6-6.72-28-9.8-3.58-1.18-7.13-2.41-10.6-3.76-2.83-1.05-5.36-1.85-8.31-2.38-3.33-0.69-6.19-1.71-9.29-3.14-5.21-2.08-10.7-3.37-16.1-4.86-1.19-0.349-2.38-0.699-3.61-1.06-3.7-1.03-7.38-1.72-11.2-2.38-2.23-0.562-2.23-0.562-5.23-2.56-2.84-0.568-5.64-1.07-8.5-1.5-8.09-1.23-8.09-1.23-11.5-3.5-1.91-0.463-3.84-0.847-5.77-1.18-1.14-0.206-2.27-0.411-3.44-0.623-2.39-0.418-4.78-0.835-7.16-1.25-1.14-0.207-2.28-0.414-3.46-0.627-1.56-0.272-1.56-0.272-3.15-0.549-3.3-0.84-6.03-2.15-9.02-3.77 1.45-5.59 3-11.1 4.88-16.6 1.75-5.12 3.21-10.3 4.62-15.5 1.85-6.79 3.95-13.4 6.5-19.9 2.19-5.81 4.35-11.6 6.5-17.4 0.295-0.795 0.59-1.59 0.895-2.41 1.73-4.68 3.38-9.38 4.93-14.1 1.85-5.58 3.98-10.9 6.71-16.1 1.12-2.28 2.04-4.6 2.96-6.96 1.2-2.91 2.42-5.82 3.64-8.73 0.907-2.18 1.81-4.36 2.7-6.55 0.64-1.57 0.64-1.57 1.29-3.16 0.384-0.947 0.768-1.89 1.16-2.87 4.05-9.01 10.3-16.3 19.2-20.7l1-2c2.11-0.781 2.11-0.781 4.75-1.5 2.63-0.725 5.08-1.42 7.55-2.57 11.7-4.06 24.7-0.418 35.7 4.07z" fill="#FAFEFE"/>
<path transform="translate(1231 87.2)" d="m0 0c8.68 5.93 14.4 12.5 18.7 22.1 0.646 1.44 0.646 1.44 1.3 2.91 0.415 0.936 0.83 1.87 1.26 2.84 0.353 0.791 0.706 1.58 1.07 2.4 0.654 1.47 1.31 2.94 1.96 4.41 0.677 1.53 1.36 3.05 2.04 4.58 2.24 5.01 4.35 10 6.25 15.2 1.3 3.5 2.73 6.94 4.19 10.4 1.8 4.29 3.4 8.57 4.82 13 0.872 2.67 1.86 5.29 2.86 7.92 1.29 3.42 2.53 6.86 3.78 10.3 0.672 1.85 1.35 3.7 2.04 5.54 2.61 7.03 4.83 14.1 7 21.3 0.666 2.15 1.33 4.29 2 6.44 1.45 4.72 2.87 9.45 4.25 14.2 0.335 1.15 0.67 2.29 1.02 3.48 0.734 2.9 0.734 2.9 0.734 5.9-3.95 1.74-7.76 2.64-12 3.44-5.03 0.961-10 2.01-15 3.19-3.32 0.788-6.48 1.44-9.88 1.88-3.16 0.364-3.16 0.364-6 1.81-5.55 2.44-11.5 3.72-17.3 5.19-1.73 0.443-1.73 0.443-3.5 0.895-4.57 1.16-9.14 2.32-13.7 3.44-1.06 0.262-2.13 0.524-3.22 0.794-0.945 0.231-1.89 0.462-2.86 0.7-2.83 0.753-5.51 1.72-8.23 2.8-5.68 2.17-11.5 3.96-17.3 5.87-20.2 6.49-20.2 6.49-39.8 14.4-2.91 0.803-4.37 0.758-7.18-0.398-1.84-2.81-1.84-2.81-3.5-6.44-0.599-1.28-1.2-2.56-1.8-3.84-0.288-0.633-0.576-1.27-0.873-1.92-1.13-2.45-2.35-4.84-3.58-7.24-1.62-3.18-3.04-6.41-4.43-9.69-1.41-3.22-2.99-6.36-4.57-9.5-0.528-1.05-0.528-1.05-1.07-2.12-3.27-6.48-6.69-12.9-10.2-19.3-0.577-1.06-0.577-1.06-1.17-2.14-5.48-10-11-20-16.6-30-0.527-0.935-1.05-1.87-1.6-2.83-4.79-8.47-9.74-16.8-15-25-0.566-0.881-0.566-0.881-1.14-1.78-1.83-2.84-3.68-5.67-5.55-8.48-0.637-0.966-1.27-1.93-1.93-2.93-0.568-0.848-1.14-1.7-1.72-2.57-1.21-2.3-1.21-2.3-1.21-6.3 0.837-0.412 1.67-0.825 2.54-1.25 8.22-4.08 16.3-8.32 24.4-12.7 2.19-1.17 4.38-2.33 6.58-3.49 0.762-0.402 1.52-0.803 2.31-1.22 1.47-0.775 2.95-1.55 4.42-2.32 2.86-1.51 5.67-3.03 8.44-4.71 2.19-1.29 4.28-2.21 6.66-3.1 4.33-1.69 8.55-3.57 12.8-5.56 10.4-4.91 20.9-9.58 31.6-13.8 3.01-1.21 5.97-2.53 8.93-3.87 18.9-8.45 38.8-14.4 58.1-2.84z" fill="#FAFEFE"/>
<path transform="translate(396,507)" d="m0 0 1 4z" fill="#767977"/>
<path transform="translate(1591,504)" d="m0 0 1 4z" fill="#767977"/>
<path transform="translate(473,1341)" d="m0 0c3 1 3 1 3 1z" fill="#767977"/>
<path transform="translate(961,1147)" d="m0 0c3 1 3 1 3 1z" fill="#FBFFFF"/>
<path transform="translate(1233,1340)" d="m0 0 2 1z" fill="#767977"/>
<path transform="translate(481,1340)" d="m0 0 2 1z" fill="#767977"/>
<path transform="translate(362,1340)" d="m0 0 2 1z" fill="#767977"/>
<path transform="translate(953,1243)" d="m0 0 2 1z" fill="#FBFFFF"/>
<path transform="translate(1061,1225)" d="m0 0 2 1z" fill="#FBFFFF"/>
<path transform="translate(1361,323)" d="m0 0 2 1z" fill="#FBFFFF"/>
<path transform="translate(193,317)" d="m0 0 2 1z" fill="#FBFFFF"/>
</svg>
